<?xml version="1.0" standalone="no"?>
<!DOCTYPE svg PUBLIC "-//W3C//DTD SVG 20010904//EN"
 "http://www.w3.org/TR/2001/REC-SVG-20010904/DTD/svg10.dtd">
<svg version="1.0" xmlns="http://www.w3.org/2000/svg"
 width="500.000000pt" height="500.000000pt" viewBox="0 0 500.000000 500.000000"
 preserveAspectRatio="xMidYMid meet">
<metadata>
Created by potrace 1.14, written by Peter Selinger 2001-2017
</metadata>
<g transform="translate(0.000000,500.000000) scale(0.100000,-0.100000)"
fill="#000000" stroke="none">
<path d="M2415 4918 c-11 -7 -26 -18 -34 -25 -7 -8 -21 -11 -30 -8 -51 21
-108 2 -159 -52 -20 -21 -50 -48 -66 -59 l-29 -21 39 -23 c91 -56 102 -69 99
-120 -2 -37 -16 -72 -59 -149 -68 -120 -123 -240 -130 -278 -2 -15 -5 -30 -5
-32 -1 -3 -12 6 -25 18 -34 32 -55 29 -301 -50 -71 -23 -195 -70 -275 -105
-79 -34 -146 -61 -148 -60 -1 2 -4 50 -5 107 l-3 104 -79 -3 -80 -4 -54 191
c-30 105 -57 191 -61 191 -20 0 -69 -23 -74 -35 -3 -8 -4 -54 -3 -104 1 -49
-1 -87 -4 -83 -4 4 -25 57 -48 117 -128 341 -129 343 -204 312 -44 -19 -47
-38 -17 -100 11 -23 45 -125 75 -227 30 -102 61 -205 70 -229 l16 -45 -28 25
c-36 32 -50 45 -268 254 -103 99 -192 179 -196 178 -15 -5 -101 -73 -92 -73 5
0 60 -49 123 -110 94 -89 111 -109 92 -110 -34 0 -62 -18 -62 -39 0 -10 35
-55 78 -101 80 -87 191 -220 192 -232 0 -3 -14 -11 -30 -17 l-31 -10 109 -163
c158 -237 302 -478 284 -478 -4 0 -22 -18 -38 -40 l-31 -40 28 -97 c16 -53 36
-135 45 -183 15 -82 15 -93 -5 -221 -19 -121 -25 -173 -47 -374 -21 -205 -26
-677 -9 -920 4 -56 2 -149 -4 -212 -7 -76 -7 -130 0 -170 6 -32 11 -131 13
-221 l3 -163 37 -71 c43 -82 43 -97 1 -293 -13 -60 -27 -140 -31 -176 l-6 -66
718 0 c396 0 1106 -2 1579 -3 l860 -3 -1 114 c0 63 -4 233 -9 379 -12 427 -12
437 -20 865 -3 226 -8 478 -10 560 -2 83 -6 359 -10 615 -8 567 -12 675 -25
699 -7 15 -2 34 25 86 19 36 35 73 35 81 0 7 7 32 16 54 13 33 18 38 28 26 12
-16 104 -38 111 -26 2 4 7 26 11 48 6 39 9 42 39 42 54 0 165 112 165 168 0
28 -126 215 -188 279 -52 53 -80 73 -105 73 -27 0 -137 -89 -137 -110 0 -11
-7 -23 -15 -26 -8 -4 -15 -12 -15 -20 0 -10 -13 -14 -44 -14 -43 0 -44 -1 -50
-39 -3 -22 -3 -46 0 -55 8 -21 -27 -34 -102 -37 -32 -2 -81 -9 -109 -17 -42
-13 -50 -13 -54 -1 -2 8 -25 55 -50 104 -138 271 -386 493 -751 673 -130 65
-183 88 -222 97 -21 5 -31 16 -39 45 -10 33 -9 42 16 86 15 27 31 53 36 59 26
26 -10 79 -47 69 -12 -3 -36 3 -55 15 -38 23 -83 27 -114 9z m1313 -1277 c72
-53 213 -239 240 -318 9 -26 7 -34 -7 -47 -16 -15 -21 -14 -57 12 -110 81
-244 267 -244 340 0 51 12 53 68 13z"/>
</g>
</svg>
